<svg id="svg" xmlns="http://www.w3.org/2000/svg" xmlns:xlink="http://www.w3.org/1999/xlink" width="400" height="400" viewBox="0, 0, 400,400" fill="inherit"><g fill="inherit"><path fill="inherit" d="M186.601 2.566 C 141.354 14.018,87.747 36.223,39.707 63.412 L 28.760 69.608 28.762 83.660 C 28.791 239.392,83.350 356.892,171.932 391.994 C 195.800 401.453,201.890 401.610,224.445 393.352 C 313.915 360.594,368.241 248.601,371.026 91.176 L 371.407 69.608 359.396 62.863 C 311.754 36.109,259.278 14.323,215.759 3.230 C 200.592 -0.636,199.360 -0.664,186.601 2.566 M208.824 27.163 C 246.776 36.806,297.425 57.468,338.536 80.078 L 346.377 84.390 346.081 88.110 C 345.919 90.156,345.630 97.478,345.441 104.381 C 342.225 221.577,303.206 317.835,243.464 355.952 C 231.044 363.876,206.810 374.510,201.170 374.510 C 200.886 374.510,200.654 295.980,200.654 200.000 C 200.654 60.825,200.819 25.491,201.471 25.496 C 201.920 25.499,205.229 26.249,208.824 27.163 " stroke="none" fill="#000000" fill-rule="evenodd"></path></g></svg>